<svg width="28" height="28" viewBox="0 0 28 28" fill="none" xmlns="http://www.w3.org/2000/svg">
<path d="M14 2.625C7.71641 2.625 2.625 7.71641 2.625 14C2.625 20.2836 7.71641 25.375 14 25.375C20.2836 25.375 25.375 20.2836 25.375 14C25.375 7.71641 20.2836 2.625 14 2.625ZM19.8242 10.8555L12.5125 18.2H12.507C12.4141 18.293 12.1625 18.5008 11.8727 18.5008C11.6648 18.5008 11.4297 18.3859 11.2328 18.1891L8.17031 15.1266C8.08281 15.0391 8.08281 14.9023 8.17031 14.8148L9.14375 13.8414C9.1875 13.7977 9.24219 13.7758 9.29688 13.7758C9.35156 13.7758 9.40625 13.7977 9.45 13.8414L11.8781 16.2695L18.55 9.54844C18.5938 9.50469 18.6484 9.48281 18.7031 9.48281C18.7633 9.48281 18.818 9.50469 18.8562 9.54844L19.8133 10.5383C19.9117 10.6312 19.9117 10.768 19.8242 10.8555V10.8555Z" fill="#D64200"/>
</svg>
